<svg width="32" height="32" viewBox="0 0 32 32" fill="none" xmlns="http://www.w3.org/2000/svg">
<mask id="mask0_517:2" style="mask-type:alpha" maskUnits="userSpaceOnUse" x="0" y="0" width="32" height="32">
<rect width="32" height="32" rx="5.25" fill="#C4C4C4"/>
</mask>
<g mask="url(#mask0_517:2)">
<rect width="32" height="32" rx="15" fill="#FFF7F3"/>
<path d="M10.0153 25C8.97864 25 8.02838 24.7754 7.1645 24.3262C6.31791 23.877 5.64408 23.2636 5.14304 22.4861C4.64199 21.6914 4.39147 20.7757 4.39147 19.739C4.39147 18.927 4.57288 18.1668 4.93571 17.4584C5.31581 16.7327 5.83414 16.128 6.49068 15.6442C5.92052 15.195 5.46267 14.6508 5.11712 14.0115C4.77157 13.355 4.5988 12.6812 4.5988 11.9901C4.5988 10.9707 4.84068 10.0809 5.32445 9.32068C5.8255 8.54319 6.49068 7.93848 7.32 7.50654C8.1666 7.07461 9.09094 6.85864 10.093 6.85864H18.153V11.2644L11.337 11.2385C10.9051 11.2385 10.5509 11.3508 10.2745 11.5754C9.99801 11.7827 9.85979 12.0851 9.85979 12.4825C9.85979 12.8626 9.99801 13.1649 10.2745 13.3895C10.5509 13.5969 10.9051 13.7005 11.337 13.7005H17.2459V18.0545H11.3629C10.931 18.0545 10.5682 18.1668 10.2745 18.3914C9.99801 18.616 9.85979 18.9356 9.85979 19.3503C9.85979 19.7476 9.99801 20.0586 10.2745 20.2832C10.5682 20.4906 10.931 20.5942 11.3629 20.5942H18.153V25H10.0153ZM19.063 25L21.5438 21.5543C20.9007 21.197 20.4157 20.7784 20.089 20.2986C19.7623 19.8187 19.599 19.2572 19.599 18.614V17.0673H22.524V18.2312C22.524 18.5476 22.5954 18.8029 22.7384 18.9969C22.8915 19.1908 23.0651 19.3338 23.259 19.4257L24.7139 17.0673H28.1596L25.8624 20.3751C26.5363 20.6916 27.0467 21.1153 27.3939 21.6462C27.741 22.1669 27.9145 22.7641 27.9145 23.438V25H24.9742V23.6677C24.9742 23.341 24.8823 23.0704 24.6986 22.856C24.5148 22.6416 24.3106 22.5089 24.086 22.4579L22.4933 25H19.063Z" fill="#3C3B40"/>
</g>
</svg>
